<svg id="レイヤー_1" data-name="レイヤー 1" xmlns="http://www.w3.org/2000/svg" viewBox="0 0 512 512"><defs><style>.cls-1{fill:#fff;}</style></defs><title>アートボード 1</title><path class="cls-1" d="M464.8,80A48,48,0,0,0,416,128h-8V96.8c0-26.3-20.9-48.3-47.2-48.8A48,48,0,0,0,312,96v32h-8V80.8c0-26.3-20.9-48.3-47.2-48.8A48,48,0,0,0,208,80v48h-8V96.8c0-26.3-20.9-48.3-47.2-48.8A48,48,0,0,0,104,96V232l-8-7.1V176.8c0-26.3-20.9-48.3-47.2-48.8A48,48,0,0,0,0,176v66.4a96.23,96.23,0,0,0,32.2,71.8l111.7,99.3A48.21,48.21,0,0,1,160,449.4v6.7a23.94,23.94,0,0,0,24,24H424a23.94,23.94,0,0,0,24-24v-2.9a97.42,97.42,0,0,1,7.5-37.3l49-116.3a95.58,95.58,0,0,0,7.5-37.3V128.8C512,102.5,491.1,80.4,464.8,80Z"/></svg>