<svg id="レイヤー_1" data-name="レイヤー 1" xmlns="http://www.w3.org/2000/svg" viewBox="0 0 448 512"><defs><style>.cls-1{fill:#fff;}</style></defs><title>アートボード 1</title><path class="cls-1" d="M408.78,128c-22.42-.43-40.78,18.35-40.78,40.78V256h-8V79.79c0-22.43-18.36-41.21-40.78-40.78A40,40,0,0,0,280,79V256h-8V40.79C272,18.36,253.64-.42,231.22,0A40,40,0,0,0,192,40V256h-8V80.79c0-22.43-18.36-41.21-40.78-40.78A40,40,0,0,0,104,80V316L72.35,272.47a40,40,0,0,0-64.7,47.06l125.6,172.7A48,48,0,0,0,172.07,512H369.66a48,48,0,0,0,46.73-37l26.5-112.66a191.43,191.43,0,0,0,5.11-44V168A40,40,0,0,0,408.78,128Z"/></svg>